<svg xmlns="http://www.w3.org/2000/svg" xmlns:xlink="http://www.w3.org/1999/xlink" width="2000" zoomAndPan="magnify" viewBox="0 0 1500 1499.999933" height="2000" preserveAspectRatio="xMidYMid meet" version="1.0"><defs><clipPath id="b805f4974c"><path d="M 881.597656 450 L 1045.097656 450 L 1045.097656 1050 L 881.597656 1050 Z M 881.597656 450 " clip-rule="nonzero"/></clipPath><clipPath id="3014a80ce8"><path d="M 520 772 L 593 772 L 593 1050 L 520 1050 Z M 520 772 " clip-rule="nonzero"/></clipPath><clipPath id="73dd2f6e88"><path d="M 662.753906 541 L 841 541 L 841 960 L 662.753906 960 Z M 662.753906 541 " clip-rule="nonzero"/></clipPath></defs><g clip-path="url(#b805f4974c)"><path fill="#000000" d="M 1004.03125 534.523438 C 1000.683594 532.992188 998.753906 530.046875 996.285156 527.535156 C 996.582031 530.179688 997.429688 539.160156 998.976562 540.75 C 1001.355469 543.203125 1004.550781 539.234375 1007.152344 539.1875 C 1006.617188 541.507812 1002.363281 541.878906 1001.828125 543.574219 C 1001.085938 545.9375 1001.519531 550.960938 1000.179688 553.890625 C 1004.550781 555.390625 1007.714844 553.5625 1011.402344 557.039062 C 1019.144531 564.339844 1017.570312 591.40625 1018.90625 602.328125 C 1020.601562 616.242188 1023.84375 632.070312 1026.503906 645.96875 C 1027.144531 649.3125 1026.832031 654.960938 1024.527344 659.199219 C 1028.511719 670.941406 1035.527344 677.792969 1038.632812 689.742188 C 1039.242188 692.078125 1038.796875 694.394531 1039.316406 696.816406 C 1040.726562 703.386719 1047.402344 706.554688 1044.207031 714.816406 C 1041.769531 721.105469 1032.390625 732.980469 1031.347656 738.511719 C 1030.875 741.066406 1032.242188 746.984375 1031.972656 750.726562 C 1029.519531 785.878906 1009.722656 825.449219 1006.347656 860.972656 C 1005.828125 866.425781 1007.179688 871.421875 1007.179688 876.503906 C 1007.179688 899.453125 1001.652344 922.835938 998.5 945.5 C 998.203125 947.582031 996.0625 953.914062 996.210938 954.792969 C 996.269531 955.207031 999.167969 956.425781 1000.0625 958.105469 C 1001.902344 961.644531 1000.566406 969.519531 999.003906 973.148438 C 996.554688 978.839844 995.125 976.746094 995.511719 985.171875 C 995.988281 995.429688 997.90625 997.421875 1001.324219 1005.742188 C 1002.585938 1008.804688 1002.839844 1011.988281 1004.386719 1015.109375 C 1008.546875 1023.550781 1019.816406 1023.429688 1023.753906 1032.230469 C 1029.65625 1045.371094 1009.128906 1043.632812 1001.292969 1043.050781 C 997.699219 1042.785156 993.121094 1040.867188 990.398438 1040.734375 C 984.738281 1040.449219 978.257812 1042.992188 971.121094 1042.160156 C 958.21875 1040.644531 962.128906 1035.292969 961.328125 1025.558594 C 960.851562 1019.761719 958.84375 1011.496094 958.933594 1006.144531 C 959.023438 1000.792969 962.335938 993.464844 963.421875 988.054688 C 970.75 951.535156 960.359375 917.75 965.414062 881.363281 C 966.304688 874.972656 968.757812 868.179688 969.070312 861.746094 C 969.414062 854.921875 967.464844 848.472656 967.539062 841.574219 C 967.71875 824.332031 972.90625 807.328125 973.738281 790.324219 C 974.078125 783.324219 972.832031 776.8125 972.933594 770.109375 C 972.933594 769.367188 974.792969 760.136719 972.207031 762.78125 C 969.175781 778.417969 964.359375 793.699219 960.777344 809.203125 C 957.832031 821.941406 956.09375 835.289062 952.882812 847.890625 C 950.042969 859.070312 945.140625 869.742188 942.136719 880.621094 C 939.507812 890.132812 939.046875 899.898438 936.875 909.515625 C 934.183594 921.464844 929.28125 932.898438 927.378906 945.039062 C 926.425781 951.058594 926.410156 957.167969 925.371094 963.21875 C 924.40625 968.867188 921.507812 975.527344 920.957031 980.535156 C 919.382812 994.597656 928.164062 1001.582031 922.785156 1017.292969 C 921.878906 1019.921875 920.199219 1019.878906 918.59375 1021.648438 C 913.941406 1026.746094 917.285156 1041.652344 913.554688 1046.113281 C 909.304688 1051.183594 895.835938 1049.414062 890.425781 1046.765625 C 877.214844 1040.316406 889.179688 1020.800781 890.472656 1010.605469 C 890.917969 1007.109375 890.308594 1003.589844 890.859375 1000.125 C 892.046875 992.542969 897.5625 983.539062 897.398438 974.160156 C 897.339844 970.578125 894.558594 964.824219 894.5 960.335938 C 894.441406 956.320312 896.28125 951.089844 896.445312 946.363281 C 897.042969 930.472656 894.484375 914.675781 896.207031 898.339844 C 898.363281 877.796875 909.019531 857.507812 912.839844 836.566406 C 916.808594 814.835938 910.96875 789.625 912.378906 767.792969 C 912.886719 760.09375 916.75 752.421875 917.078125 745.273438 C 917.285156 740.859375 918.832031 729.605469 917.851562 726.679688 C 917.523438 725.710938 903.773438 700.058594 901.976562 697.515625 C 898.734375 692.96875 896.460938 687.4375 893.324219 682.875 C 890.1875 678.3125 883.097656 672.796875 882.164062 666.851562 C 880.097656 653.625 884.15625 625.265625 886.101562 611.113281 C 888.433594 594.230469 890.679688 574.089844 899.96875 559.761719 C 896.625 558.480469 891.421875 558.183594 892.210938 553.160156 C 895.316406 554.839844 898.1875 555.195312 901.515625 553.933594 C 899.269531 550.21875 896.742188 547.75 896.863281 543.066406 C 903.359375 547.410156 910.894531 547.824219 910.910156 538.015625 C 910.910156 530.449219 907.757812 529.246094 911.472656 520.789062 C 912.410156 518.664062 915.085938 515.691406 915.382812 513.757812 C 915.695312 511.691406 914.328125 510.117188 914.890625 507.945312 C 915.144531 506.933594 923.4375 495.074219 924.96875 492.355469 C 932.640625 478.722656 934.898438 465.449219 949.585938 457.1875 C 954.921875 454.183594 970.007812 448 975.253906 451.910156 C 979.710938 455.238281 977.839844 453.542969 982.878906 455.164062 C 992.554688 458.285156 999.332031 473.535156 1000.148438 482.914062 C 1001.25 495.445312 996.390625 520.207031 1001.160156 530.046875 C 1002.066406 531.90625 1004.074219 532.457031 1004.042969 534.535156 Z M 913.167969 662.617188 C 913.511719 661.117188 911.933594 660.253906 911.757812 658.976562 C 911.371094 656.269531 913.792969 651.945312 909.304688 649.417969 C 909.882812 654.308594 907.015625 660.816406 913.167969 662.617188 Z M 913.167969 662.617188 " fill-opacity="1" fill-rule="nonzero"/></g><path fill="#000000" d="M 501.984375 521.503906 L 498.371094 521.917969 C 489.316406 523.019531 477.429688 533.625 462.714844 553.738281 C 456.542969 562.332031 448.9375 579.050781 439.898438 603.894531 C 438.796875 607.203125 437.78125 612.894531 436.851562 620.960938 C 436.269531 624.328125 435.066406 639.46875 433.238281 666.386719 C 432.421875 673.496094 431.101562 680.199219 429.28125 686.488281 C 424.152344 700.730469 419.824219 711.640625 416.296875 719.21875 L 396.871094 746.433594 C 394.46875 749.894531 392.957031 753.566406 392.335938 757.449219 C 391.246094 766.28125 396.085938 770.484375 406.855469 770.0625 C 411.539062 769.390625 414.351562 767.703125 415.289062 764.996094 C 415.601562 764.453125 415.921875 763.460938 416.238281 762.019531 C 416.621094 752.542969 417.253906 746.957031 418.132812 745.261719 C 422.058594 735.628906 427.277344 725.972656 433.785156 716.300781 C 434.957031 714.054688 438.570312 709.703125 444.628906 703.238281 C 449.5 698.621094 454.441406 695.59375 459.453125 694.15625 L 466.65625 663 C 467.617188 660.085938 469.246094 657.496094 471.550781 655.234375 C 472.703125 653.148438 484.816406 661.9375 507.882812 681.605469 L 530.023438 553.007812 C 526.699219 543.597656 523.007812 536.292969 518.949219 531.101562 L 515.832031 527.601562 C 513.710938 525.53125 511.496094 523.988281 509.1875 522.972656 C 506.878906 521.957031 504.476562 521.46875 501.984375 521.503906 " fill-opacity="1" fill-rule="nonzero"/><path fill="#000000" d="M 507.332031 450.441406 L 506.820312 450.453125 C 493.328125 452.453125 482.417969 457.820312 474.085938 466.550781 C 466.429688 474.4375 462.570312 483.820312 462.503906 494.703125 C 462.414062 497.574219 462.523438 500.613281 462.832031 503.824219 C 463.1875 508.285156 463.859375 511.578125 464.855469 513.703125 C 465.828125 515.742188 467.445312 517.8125 469.703125 519.917969 C 470.652344 523.039062 472.746094 526.664062 475.992188 530.796875 C 476.988281 532.726562 478.484375 536.667969 480.480469 542.617188 L 506.617188 578.957031 C 520.777344 577.171875 532.378906 572.257812 541.421875 564.222656 C 551.242188 555 556.515625 544.121094 557.246094 531.585938 C 557.230469 527.210938 556.332031 522.800781 554.554688 518.359375 C 547.722656 503.074219 542.671875 493.664062 539.394531 490.136719 C 535.25 474.9375 532.097656 465.765625 529.945312 462.621094 C 526.820312 458.316406 523.8125 455.382812 520.925781 453.816406 C 519.355469 452.886719 517.6875 452.144531 515.925781 451.597656 C 511.34375 450.570312 508.480469 450.183594 507.332031 450.441406 " fill-opacity="1" fill-rule="nonzero"/><path fill="#000000" d="M 530.164062 532.972656 L 528.011719 533.09375 C 518.375 535.0625 512.960938 538.917969 511.769531 544.667969 C 510.863281 548.921875 509.976562 556.632812 509.109375 567.800781 C 508.78125 571.070312 508.84375 590.476562 509.296875 626.015625 C 508.96875 631.511719 508.023438 636.632812 506.457031 641.386719 L 553.289062 629.339844 L 581.605469 663.957031 L 620.476562 729.753906 C 626.804688 740.765625 630.285156 749.613281 630.917969 756.296875 C 631.214844 758.078125 628.296875 760.941406 622.167969 764.894531 C 621.414062 765.847656 621.351562 767.382812 621.972656 769.503906 C 627.398438 777.308594 632.699219 780.792969 637.878906 779.953125 C 641.84375 774.960938 643.863281 771.789062 643.9375 770.4375 C 644.835938 768.101562 645.433594 765.617188 645.734375 762.988281 C 646.328125 757.730469 645.726562 751.882812 643.925781 745.449219 L 616.519531 677.398438 C 613.527344 664.714844 607.304688 644.363281 597.84375 616.335938 L 586.910156 575.429688 L 585.671875 572.449219 C 579.429688 559.609375 573.144531 551.542969 566.8125 548.253906 C 552.230469 537.914062 540.015625 532.820312 530.164062 532.972656 " fill-opacity="1" fill-rule="nonzero"/><path fill="#000000" d="M 545.554688 593.785156 L 487.246094 655.421875 C 486.980469 662.90625 486.429688 669.527344 485.59375 675.277344 C 476.523438 728.496094 471.683594 762.152344 471.078125 776.25 C 470.453125 786.351562 472.011719 793.484375 475.761719 797.65625 L 477.992188 800.472656 C 479.652344 802.253906 481.648438 803.839844 483.984375 805.230469 C 486.324219 806.621094 489 807.820312 492.015625 808.820312 C 497.109375 810.753906 505.4375 812.054688 517 812.722656 C 521.757812 813.191406 544.496094 810.710938 585.214844 805.285156 C 591.042969 804.257812 595.433594 802.371094 598.378906 799.617188 C 602.179688 796.257812 604.238281 789.632812 604.550781 779.742188 C 604.710938 774.796875 604.433594 769.035156 603.71875 762.460938 C 603.90625 760.191406 601.855469 748.488281 597.566406 727.351562 C 591.75 705.980469 587.296875 691.195312 584.207031 682.992188 C 571.300781 651.855469 561.351562 626.953125 554.363281 608.285156 C 551.339844 601.308594 548.40625 596.472656 545.554688 593.785156 " fill-opacity="1" fill-rule="nonzero"/><path fill="#000000" d="M 543.867188 786.769531 L 502.910156 808.714844 C 503.5625 830.308594 502.808594 851.304688 500.648438 871.699219 C 498.984375 884.699219 494.371094 906.066406 486.804688 935.804688 C 481.238281 955.304688 476.96875 967.816406 473.992188 973.347656 C 471.359375 978.082031 468.871094 981.855469 466.515625 984.667969 C 465.253906 986.25 460.59375 990.714844 452.53125 998.066406 C 451.632812 999.042969 451.167969 999.960938 451.132812 1000.820312 C 452.003906 1003.296875 453.253906 1005.699219 454.878906 1008.019531 C 455.167969 1008.625 456.59375 1010.324219 459.160156 1013.121094 L 462.71875 1016.375 C 462.5 1016.519531 462.625 1016.792969 463.089844 1017.191406 C 464.351562 1018.082031 471.007812 1017.949219 483.058594 1016.789062 C 483.625 1016.960938 484.003906 1017.511719 484.199219 1018.4375 C 484.089844 1022.21875 484.203125 1024.496094 484.53125 1025.273438 C 485.0625 1026.648438 485.898438 1027.066406 487.046875 1026.535156 C 487.738281 1026.394531 488.710938 1024.957031 489.972656 1022.226562 C 489.675781 1019.835938 492.542969 1011.214844 498.578125 996.371094 C 498.648438 994.089844 496.480469 989.785156 492.078125 983.464844 C 491.640625 981.796875 491.753906 980.183594 492.417969 978.617188 C 504.042969 960.085938 513.402344 943.4375 520.496094 928.667969 C 524.535156 920.042969 529.644531 903.914062 535.820312 880.285156 C 537.722656 871.429688 539.339844 863.003906 540.667969 855.003906 C 543.480469 835.753906 544.824219 824.722656 544.695312 821.902344 C 545.660156 808.472656 545.382812 796.761719 543.867188 786.769531 " fill-opacity="1" fill-rule="nonzero"/><g clip-path="url(#3014a80ce8)"><path fill="#000000" d="M 558.054688 772.96875 L 557.875 772.976562 L 524.332031 781.546875 L 520.46875 908.191406 C 526.128906 912.980469 531.972656 921.332031 537.992188 933.242188 C 545.597656 949.6875 550.214844 960.621094 551.847656 966.042969 C 554.992188 974.667969 558.183594 984.179688 561.421875 994.582031 C 562.683594 1000.617188 562.671875 1006.066406 561.378906 1010.921875 C 560.40625 1014.289062 559.328125 1017.101562 558.148438 1019.359375 L 548.695312 1036.902344 C 548.5625 1037.527344 548.492188 1038.183594 548.480469 1038.875 C 548.253906 1040.496094 548.945312 1043.277344 550.5625 1047.222656 C 552.164062 1048.953125 554.621094 1049.90625 557.933594 1050.089844 C 561.746094 1049.777344 565.003906 1048.5625 567.703125 1046.441406 C 575.167969 1035.175781 579.363281 1029.703125 580.289062 1030.023438 C 580.792969 1030.046875 581.105469 1030.453125 581.226562 1031.242188 C 581.445312 1040.066406 581.882812 1045.003906 582.542969 1046.0625 C 583.257812 1047.835938 584.226562 1047.925781 585.449219 1046.335938 C 586.136719 1045.324219 586.515625 1044.371094 586.589844 1043.480469 L 588.15625 1025.328125 C 588.316406 1024.019531 589.480469 1020 591.652344 1013.265625 C 592.160156 1011.21875 592.417969 1009.273438 592.417969 1007.433594 C 592.398438 1005.152344 591.84375 1002.238281 590.765625 998.6875 C 585.457031 987.117188 582.605469 979.988281 582.210938 977.296875 C 581.09375 971.972656 579.628906 956.449219 577.816406 930.726562 C 577.1875 925 575.984375 917.972656 574.207031 909.640625 C 569.613281 890.917969 563.9375 871.554688 557.175781 851.554688 C 556.382812 848.75 555.746094 845.75 555.269531 842.554688 C 553.878906 831.824219 553.613281 823.304688 554.472656 817 C 554.695312 814.285156 555.308594 809.816406 556.308594 803.589844 L 560.746094 776.992188 C 561.03125 774.410156 560.132812 773.066406 558.054688 772.96875 " fill-opacity="1" fill-rule="nonzero"/></g><path fill="#000000" d="M 825.035156 752.582031 C 828.769531 749.613281 825.824219 744.652344 825.824219 744.652344 L 835.921875 743.613281 C 835.921875 743.613281 835.453125 751.378906 839.097656 754.78125 C 842.742188 758.1875 841.5625 770.917969 833.519531 770.808594 C 825.472656 770.699219 821.308594 755.550781 825.035156 752.582031 Z M 825.035156 752.582031 " fill-opacity="1" fill-rule="nonzero"/><path fill="#000000" d="M 726.652344 994.242188 L 748.414062 994.542969 C 748.414062 994.535156 749.839844 1050.007812 735.96875 1049.824219 C 722.097656 1049.628906 726.652344 994.242188 726.652344 994.242188 Z M 726.652344 994.242188 " fill-opacity="1" fill-rule="nonzero"/><path fill="#000000" d="M 736.847656 1032.417969 C 746.175781 1032.542969 748.101562 1012.636719 748.109375 1012.582031 C 747.28125 1028.753906 744.550781 1049.9375 735.96875 1049.824219 C 727.804688 1049.710938 726.023438 1030.480469 725.9375 1014.667969 C 726.21875 1017.152344 728.269531 1032.304688 736.847656 1032.417969 Z M 736.847656 1032.417969 " fill-opacity="1" fill-rule="nonzero"/><path fill="#000000" d="M 697.824219 738.242188 C 697.824219 738.242188 702.296875 802.222656 710.894531 847.832031 C 719.496094 893.441406 725.949219 1012.738281 725.949219 1012.738281 L 750.703125 1013.082031 L 752.417969 885.832031 L 757.644531 968.257812 L 782.976562 968.601562 C 782.976562 968.597656 783.019531 879.910156 789.019531 862.140625 C 795.019531 844.371094 808.515625 779.90625 808.953125 747.449219 C 809.386719 714.984375 697.824219 738.242188 697.824219 738.242188 Z M 697.824219 738.242188 " fill-opacity="1" fill-rule="nonzero"/><path fill="#000000" d="M 759.273438 966.921875 L 781.035156 967.222656 C 781.035156 967.214844 782.460938 1022.6875 768.589844 1022.5 C 754.71875 1022.316406 759.273438 966.921875 759.273438 966.921875 Z M 759.273438 966.921875 " fill-opacity="1" fill-rule="nonzero"/><path fill="#000000" d="M 769.570312 1006.445312 C 778.902344 1006.574219 780.828125 986.664062 780.835938 986.609375 C 780.003906 1002.78125 777.277344 1023.96875 768.695312 1023.851562 C 760.527344 1023.742188 758.75 1004.507812 758.664062 988.695312 C 758.941406 991.179688 760.988281 1006.332031 769.570312 1006.445312 Z M 769.570312 1006.445312 " fill-opacity="1" fill-rule="nonzero"/><g clip-path="url(#73dd2f6e88)"><path fill="#000000" d="M 789.359375 667.480469 C 789.511719 656.347656 798.046875 649.550781 798.046875 649.550781 L 822.097656 745.085938 L 840.136719 745.335938 C 840.136719 745.328125 830.511719 576.273438 821.0625 565.394531 C 811.609375 554.519531 776.082031 541.757812 776.082031 541.757812 L 730.550781 544.503906 C 730.550781 544.503906 700.640625 556.101562 695.101562 567.929688 C 689.574219 579.757812 662.8125 742.179688 662.8125 742.179688 L 685.039062 745.070312 L 711.296875 648.394531 C 711.296875 648.394531 719.300781 652.59375 719.113281 666.667969 C 718.921875 680.742188 704.496094 682.855469 695.472656 733.21875 C 686.4375 783.585938 696.742188 959.558594 696.742188 959.558594 L 719.003906 959.867188 C 719.003906 959.859375 740.367188 884.128906 745.796875 851.566406 C 751.226562 819.003906 761.039062 746.105469 761.039062 746.105469 C 761.039062 746.105469 783.472656 905.054688 802.863281 947.554688 L 824.402344 944.390625 C 824.402344 944.390625 826.597656 809.664062 816.972656 755.023438 C 807.34375 700.355469 789.210938 678.609375 789.359375 667.480469 Z M 789.359375 667.480469 " fill-opacity="1" fill-rule="nonzero"/></g><path fill="#000000" d="M 730.550781 544.503906 C 730.550781 544.503906 717.234375 528.488281 719.320312 522.761719 C 721.417969 517.03125 723.660156 512.457031 719.378906 503.46875 C 715.101562 494.484375 728.363281 450.035156 761.472656 450.480469 C 794.578125 450.925781 796.011719 494.140625 795.707031 516.878906 C 795.402344 539.617188 770.503906 570.960938 765.632812 591.046875 L 750.085938 590.847656 C 750.078125 590.839844 739.292969 557.136719 730.550781 544.503906 Z M 730.550781 544.503906 " fill-opacity="1" fill-rule="nonzero"/><path fill="#000000" d="M 760.433594 463.714844 C 748.296875 463.550781 735.917969 480.660156 735.699219 496.777344 C 735.480469 512.898438 743.082031 536.613281 759.449219 536.832031 C 775.816406 537.054688 784.050781 513.554688 784.269531 497.433594 C 784.488281 481.3125 772.570312 463.878906 760.433594 463.714844 Z M 760.433594 463.714844 " fill-opacity="1" fill-rule="nonzero"/><path fill="#000000" d="M 760.433594 463.714844 C 748.296875 463.550781 735.917969 480.660156 735.699219 496.777344 C 735.480469 512.898438 743.082031 536.613281 759.449219 536.832031 C 775.816406 537.054688 784.050781 513.554688 784.269531 497.433594 C 784.488281 481.3125 772.570312 463.878906 760.433594 463.714844 Z M 760.433594 463.714844 " fill-opacity="1" fill-rule="nonzero"/><path fill="#000000" d="M 760.292969 474.136719 C 767.429688 474.230469 774.527344 476.828125 780.578125 480.894531 C 776.15625 471.265625 768.34375 463.8125 760.433594 463.707031 C 752.523438 463.601562 744.511719 470.828125 739.835938 480.34375 C 745.984375 476.445312 753.152344 474.039062 760.292969 474.136719 Z M 760.292969 474.136719 " fill-opacity="1" fill-rule="nonzero"/><path fill="#000000" d="M 790.3125 672.871094 C 789.691406 670.828125 789.339844 669.046875 789.359375 667.484375 C 789.394531 664.945312 789.875 662.652344 790.582031 660.589844 L 718.429688 659.628906 C 718.882812 661.636719 719.148438 663.964844 719.109375 666.667969 C 719.085938 668.589844 718.792969 670.28125 718.285156 671.902344 L 790.3125 672.878906 Z M 790.3125 672.871094 " fill-opacity="1" fill-rule="nonzero"/><path fill="#000000" d="M 750.078125 590.839844 L 757.210938 638.640625 L 765.625 591.046875 Z M 750.078125 590.839844 " fill-opacity="1" fill-rule="nonzero"/><path fill="#000000" d="M 681.644531 752.496094 C 677.992188 749.429688 681.070312 744.546875 681.070312 744.546875 L 671 743.238281 C 671 743.238281 671.261719 751.015625 667.527344 754.316406 C 663.792969 757.621094 664.628906 770.378906 672.671875 770.488281 C 680.71875 770.597656 685.292969 755.566406 681.644531 752.496094 Z M 681.644531 752.496094 " fill-opacity="1" fill-rule="nonzero"/></svg>